<?xml version="1.0" encoding="utf-8"?>
<!-- Generator: Adobe Illustrator 25.3.0, SVG Export Plug-In . SVG Version: 6.00 Build 0)  -->
<svg version="1.1" id="Layer_1" xmlns="http://www.w3.org/2000/svg" xmlns:xlink="http://www.w3.org/1999/xlink" x="0px" y="0px"
	 viewBox="0 0 548.5 310.53" style="enable-background:new 0 0 548.5 310.53;" xml:space="preserve">
<style type="text/css">
	.st0{fill:url(#SVGID_1_);}
	.st1{fill:url(#SVGID_2_);}
</style>
<g>
	<g>
		<g>
			<path d="M256.95,167.41v-6.56h-1.27c-0.15,0-0.27-0.12-0.27-0.27v-0.87c0-0.15,0.12-0.27,0.27-0.27h1.27v-2.03
				c0-0.15,0.12-0.27,0.27-0.27h0.96c0.15,0,0.27,0.12,0.27,0.27v2.03h3.4c0.15,0,0.27,0.12,0.27,0.27v0.89
				c0,0.15-0.12,0.27-0.27,0.27h-3.4v6.37c0,1,0.66,1.66,1.64,1.68l1.76,0.02c0.15,0,0.27,0.12,0.27,0.27v0.89
				c0,0.15-0.12,0.27-0.27,0.27h-1.93C257.99,170.36,256.95,169.03,256.95,167.41z"/>
			<path d="M264.15,166.4v-3.01c0-2.34,1.87-4.21,4.19-4.21s4.19,1.87,4.19,4.21v3.01c0,2.34-1.87,4.21-4.19,4.21
				S264.15,168.74,264.15,166.4z M271.02,166.5v-3.2c0-1.49-1.2-2.68-2.68-2.68s-2.68,1.2-2.68,2.68v3.2c0,1.49,1.2,2.68,2.68,2.68
				S271.02,167.99,271.02,166.5z"/>
			<path d="M275.13,166.4v-3.01c0-2.34,1.87-4.21,4.19-4.21s4.19,1.87,4.19,4.21v3.01c0,2.34-1.87,4.21-4.19,4.21
				S275.13,168.74,275.13,166.4z M282,166.5v-3.2c0-1.49-1.2-2.68-2.68-2.68s-2.68,1.2-2.68,2.68v3.2c0,1.49,1.2,2.68,2.68,2.68
				S282,167.99,282,166.5z"/>
			<path d="M286.92,169.67v-12.53h-1.79c-0.15,0-0.27-0.12-0.27-0.27v-0.89c0-0.15,0.12-0.27,0.27-0.27h2.61
				c0.39,0,0.69,0.31,0.69,0.69v12.53h2.05c0.15,0,0.27,0.12,0.27,0.27v0.89c0,0.15-0.12,0.27-0.27,0.27h-2.86
				C287.23,170.36,286.92,170.05,286.92,169.67z"/>
			<path d="M293.06,170.11v-14.13c0-0.15,0.12-0.27,0.27-0.27h0.96c0.15,0,0.27,0.12,0.27,0.27v7.7h0.79l3.8-4.07
				c0.1-0.12,0.19-0.17,0.33-0.17h1.25c0.15,0,0.25,0.12,0.25,0.23c0,0.08-0.02,0.13-0.08,0.19l-4.29,4.48l4.52,5.64
				c0.04,0.06,0.06,0.1,0.06,0.15c0,0.12-0.08,0.23-0.23,0.23h-1.25c-0.13,0-0.23-0.06-0.33-0.17l-4.03-5.08h-0.79v5
				c0,0.15-0.14,0.25-0.29,0.25h-0.93C293.19,170.36,293.06,170.26,293.06,170.11z"/>
			<path d="M305.02,169.67v-8.8h-2.01c-0.15,0-0.27-0.12-0.27-0.27v-0.89c0-0.15,0.12-0.27,0.27-0.27h2.82c0.39,0,0.7,0.31,0.7,0.69
				v8.8h1.99c0.15,0,0.27,0.12,0.27,0.27v0.89c0,0.15-0.12,0.27-0.27,0.27h-2.8C305.33,170.36,305.02,170.05,305.02,169.67z
				 M305.04,157.66v-1.68c0-0.15,0.12-0.27,0.27-0.27h0.93c0.15,0,0.27,0.12,0.27,0.27v1.68c0,0.15-0.12,0.27-0.27,0.27h-0.93
				C305.16,157.93,305.04,157.81,305.04,157.66z"/>
			<path d="M311.49,167.41v-6.56h-1.27c-0.15,0-0.27-0.12-0.27-0.27v-0.87c0-0.15,0.12-0.27,0.27-0.27h1.27v-2.03
				c0-0.15,0.12-0.27,0.27-0.27h0.96c0.15,0,0.27,0.12,0.27,0.27v2.03h3.4c0.15,0,0.27,0.12,0.27,0.27v0.89
				c0,0.15-0.12,0.27-0.27,0.27h-3.4v6.37c0,1,0.66,1.66,1.64,1.68l1.76,0.02c0.15,0,0.27,0.12,0.27,0.27v0.89
				c0,0.15-0.12,0.27-0.27,0.27h-1.93C312.53,170.36,311.49,169.03,311.49,167.41z"/>
			<path d="M317.72,172.21v-0.89c0-0.15,0.12-0.27,0.27-0.27h8.92c0.16,0,0.27,0.12,0.27,0.27v0.89c0,0.15-0.12,0.27-0.27,0.27
				h-8.92C317.84,172.48,317.72,172.37,317.72,172.21z"/>
		</g>
	</g>
	<g>
		
			<linearGradient id="SVGID_1_" gradientUnits="userSpaceOnUse" x1="-662.0527" y1="126.6986" x2="-661.0527" y2="126.6986" gradientTransform="matrix(46.418 46.418 46.418 -46.418 25054.8164 36739.1602)">
			<stop  offset="0" style="stop-color:#FFFFFF"/>
			<stop  offset="0.24" style="stop-color:#F37226"/>
			<stop  offset="0.48" style="stop-color:#D64799"/>
			<stop  offset="0.79" style="stop-color:#3B469D"/>
			<stop  offset="1" style="stop-color:#6ECEEB"/>
		</linearGradient>
		<path class="st0" d="M246.16,155.72L246.16,155.72L246.16,155.72L246.16,155.72c-0.13-0.35-0.36-0.7-0.67-1.02v-5.77l0-0.01
			c-0.24-2.41-2.2-4.38-4.65-4.38H230.5c1.9-1.91,4.09-4.11,6.71-6.72l0.11-0.11l4.3-2.54c0.11,0,0.11-0.11,0.22-0.11l2.98-4.31
			c0.11-0.22,0.11-0.55-0.11-0.77l-1.88-1.88c-0.13-0.13-0.3-0.18-0.46-0.18c-0.11,0-0.22,0.03-0.32,0.07l-4.3,2.98
			c-0.11,0-0.11,0.11-0.11,0.22l-2.65,4.3c0,0,0,0,0,0.11c-3.6,3.6-6.46,6.48-8.9,8.93h-3.87l2.34-6.24l0.88-2.37
			c2.7-0.16,5.05-1.85,6.06-4.36c0.85-2.26,0.36-4.9-1.21-6.78l-0.42-0.53l-2.29,6.14l-5.07-1.89l2.3-6.14l-0.66,0.12
			c-2.42,0.39-4.52,2.06-5.36,4.32c-0.9,2.55-0.24,5.38,1.7,7.27l-0.89,2.37l-3.03,8.09h-0.33c-2.43,0-4.41,1.98-4.41,4.41v20.1
			c0,2.43,1.98,4.41,4.41,4.41h24.59c2.45,0,4.41-1.97,4.65-4.38l0-0.01v-5.77c0.31-0.32,0.54-0.67,0.67-1.01l0,0l0,0v0
			c0.36-0.92,0.35-1.99,0.36-3.11v-0.34C246.51,157.71,246.52,156.65,246.16,155.72L246.16,155.72z M242.66,169.04
			c0,0.99-0.81,1.8-1.82,1.8h-24.59c-0.99,0-1.8-0.81-1.8-1.8v-20.1c0-0.99,0.81-1.8,1.8-1.8h24.59c1.01,0,1.81,0.81,1.82,1.8v4.85
			h-9.36c-2.86,0-5.2,2.34-5.2,5.2c0,2.86,2.34,5.2,5.2,5.2h9.36V169.04z M243.91,159.16c0,0.91-0.01,1.78-0.17,2.16l0,0
			c-0.04,0.11-0.05,0.13-0.1,0.17c-0.05,0.04-0.19,0.09-0.51,0.09c0,0,0,0,0,0h-9.82c-1.43,0-2.59-1.16-2.59-2.59
			c0-1.43,1.16-2.59,2.59-2.59h9.82c0,0,0.01,0,0.01,0c0.32,0,0.46,0.06,0.51,0.09c0.05,0.03,0.06,0.06,0.1,0.17l0,0.01l0-0.01
			c0.16,0.39,0.18,1.25,0.17,2.16V159.16z"/>
		
			<linearGradient id="SVGID_2_" gradientUnits="userSpaceOnUse" x1="-662.0527" y1="126.6631" x2="-661.0527" y2="126.6631" gradientTransform="matrix(46.418 46.418 46.418 -46.418 25054.8164 36739.1602)">
			<stop  offset="0" style="stop-color:#FFFFFF"/>
			<stop  offset="0.24" style="stop-color:#F37226"/>
			<stop  offset="0.48" style="stop-color:#D64799"/>
			<stop  offset="0.79" style="stop-color:#3B469D"/>
			<stop  offset="1" style="stop-color:#6ECEEB"/>
		</linearGradient>
		<path class="st1" d="M233.56,157.39c-0.88,0-1.6,0.72-1.6,1.6c0,0.88,0.72,1.6,1.6,1.6c0.89,0,1.6-0.72,1.6-1.6
			C235.16,158.12,234.45,157.39,233.56,157.39z"/>
	</g>
	<g>
		<path d="M260.15,143.96l1.94-5.77h0.11l1.94,5.77H260.15 M263.75,135.25h-3.2l-5.04,14.32h2.77l1.18-3.53h5.38l1.19,3.53h2.77
			L263.75,135.25"/>
		<polyline points="273.1,135.25 270.57,135.25 270.57,149.57 273.1,149.57 273.1,135.25 		"/>
		<path d="M277.75,143.19c0.08-1.37,1.09-2.52,2.6-2.52c1.45,0,2.43,1.06,2.45,2.52H277.75L277.75,143.19 M280.32,138.69
			c-3.08,0-5.08,2.26-5.08,5.57c0,3.37,1.98,5.52,5.21,5.52c2.5,0,4.22-1.22,4.67-3.09l-2.36-0.27c-0.34,0.91-1.18,1.38-2.27,1.38
			c-1.64,0-2.72-1.08-2.74-2.92h7.48v-0.78C285.23,140.35,282.96,138.69,280.32,138.69"/>
		<path d="M287.37,153.6L287.37,153.6L287.37,153.6 M292.37,147.68c-1.61,0-2.52-1.4-2.52-3.48s0.89-3.43,2.52-3.43
			c1.69,0,2.55,1.43,2.55,3.43C294.92,146.21,294.04,147.68,292.37,147.68 M293.07,138.69c-1.89,0-2.68,1.14-3.07,1.92h-0.15v-1.78
			h-2.49v14.76h2.53v-5.72h0.1c0.4,0.78,1.23,1.88,3.08,1.88c2.53,0,4.42-2.01,4.42-5.54C297.5,140.64,295.55,138.69,293.07,138.69"
			/>
		<path d="M302.14,135.25h-2.47v14.32h2.53v-6.29c0-1.55,0.96-2.45,2.32-2.45c1.33,0,2.11,0.85,2.11,2.29v6.44h2.53v-6.84
			c0-2.59-1.47-4.04-3.7-4.04c-1.65,0-2.7,0.75-3.19,1.96h-0.13V135.25"/>
		<path d="M314.26,138.83h-2.53v10.74h2.53V138.83 M313,134.56c-0.81,0-1.47,0.62-1.47,1.38c0,0.75,0.66,1.37,1.47,1.37
			c0.8,0,1.46-0.62,1.46-1.37C314.46,135.18,313.8,134.56,313,134.56"/>
		<path d="M326.23,138.83h-2.53v6.22c0,1.64-1.17,2.45-2.29,2.45c-1.22,0-2.03-0.86-2.03-2.22v-6.45h-2.53v6.84
			c0,2.58,1.47,4.04,3.58,4.04c1.61,0,2.74-0.85,3.23-2.05h0.11v1.91h2.45V138.83"/>
		<path d="M328.83,149.57L328.83,149.57L328.83,149.57 M340.58,138.69c-1.56,0-2.75,0.77-3.22,1.96h-0.11
			c-0.41-1.22-1.45-1.96-2.9-1.96c-1.44,0-2.52,0.74-2.96,1.96h-0.13v-1.82h-2.42v10.74h2.53v-6.53c0-1.32,0.88-2.22,1.97-2.22
			c1.07,0,1.8,0.72,1.8,1.82v6.92h2.48v-6.7c0-1.21,0.72-2.05,1.94-2.05c1.02,0,1.83,0.6,1.83,1.93v6.82h2.54v-7.21
			C343.93,139.97,342.55,138.69,340.58,138.69"/>
	</g>
</g>
</svg>
