<?xml version="1.0" encoding="UTF-8" standalone="no"?>
<svg
   width="100%"
   height="100%"
   viewBox="0 0 1024 768"
   version="1.1"
   xml:space="preserve"
   style="fill-rule:evenodd;clip-rule:evenodd;stroke-linejoin:round;stroke-miterlimit:2;"
   id="svg63"
   xmlns="http://www.w3.org/2000/svg"
   xmlns:svg="http://www.w3.org/2000/svg">
    <g
   id="g8088"><rect
     x="0"
     y="-0.0017441406"
     width="1024.0035"
     height="768.00037"
     style="fill:none;stroke-width:1.39098"
     id="rect2" /><path
     d="m 634.45065,34.971924 c 0,-5.373319 -4.24666,-8.991984 -9.49253,-8.067132 l -62.70061,11.054185 c -5.24587,0.924852 -9.49252,6.040897 -9.49252,11.414216 V 167.94197 c 0,5.38559 4.24665,9.00425 9.49252,8.0794 l 62.70061,-11.05418 c 5.24587,-0.92486 9.49253,-6.0409 9.49253,-11.42649 z"
     style="fill:#ff5d51;fill-opacity:1;stroke-width:1.23785"
     id="path8" /><g
     id="g8072"><path
       d="m 471.12465,300.46769 c 0,-5.37331 -4.24666,-8.99198 -9.49253,-8.06713 l -62.70061,11.05419 c -5.24587,0.92485 -9.49252,6.04089 -9.49252,11.41421 v 118.56878 c 0,5.38559 4.24665,9.00426 9.49252,8.0794 l 62.70061,-11.05418 c 5.24587,-0.92485 9.49253,-6.0409 9.49253,-11.42649 z"
       style="fill:#000000;stroke-width:1.23785;fill-opacity:1"
       id="path4" /><path
       d="m 481.30767,62.646608 c -2.42168,-5.333669 -8.93141,-8.847766 -14.55198,-7.856853 L 399.57654,66.63352 c -5.62057,0.990912 -8.2108,6.109344 -5.78912,11.443012 L 542.54624,405.71179 c 2.42169,5.33367 8.94542,8.87859 14.56599,7.88768 l 67.17915,-11.84376 c 5.62056,-0.99092 8.1968,-6.14018 5.77511,-11.47385 z"
       style="fill:#000000;stroke-width:2.11094;fill-opacity:1"
       id="path12" /><path
       d="m 45.882289,632.61784 c 0,34.59963 22.399953,57.59939 50.399894,57.59939 17.599967,0 30.199937,-8.39991 36.799927,-17.99981 v 16.19983 h 28.19994 V 577.61841 h -28.19994 v 15.79984 c -6.59999,-9.19991 -18.79996,-17.59982 -36.599927,-17.59982 -28.199941,0 -50.599894,22.19977 -50.599894,56.79941 z m 87.199821,0.39999 c 0,20.99978 -13.99997,32.59966 -29.39994,32.59966 -14.999971,0 -29.199941,-11.99987 -29.199941,-32.99965 0,-20.99978 14.19997,-32.19967 29.199941,-32.19967 15.39997,0 29.39994,11.59988 29.39994,32.59966 z"
       style="fill:#000000;fill-rule:nonzero;stroke-width:199.999;fill-opacity:1"
       id="path18" /><rect
       x="184.66464"
       y="540.41882"
       width="27.999941"
       height="147.99844"
       style="fill:#000000;fill-rule:nonzero;stroke-width:199.999;fill-opacity:1"
       id="rect22" /><path
       d="m 283.88594,598.81819 c 14.39997,0 25.99995,9.1999 26.39995,23.79975 H 257.686 c 2.19999,-15.19984 12.79997,-23.79975 26.19994,-23.79975 z m 52.59989,54.79943 h -30.19994 c -3.59999,7.39992 -10.19997,13.39985 -22.19995,13.39985 -13.99997,0 -25.19995,-9.1999 -26.59994,-25.59973 h 80.99983 c 0.6,-3.59996 0.79999,-7.19992 0.79999,-10.79988 0,-32.99966 -22.59995,-54.79943 -54.59988,-54.79943 -32.79993,0 -55.59988,22.19977 -55.59988,57.1994 0,34.79964 23.39995,57.1994 55.59988,57.1994 27.39994,0 45.7999,-16.19983 51.79989,-36.59961 z"
       style="fill:#000000;fill-rule:nonzero;stroke-width:199.999;fill-opacity:1"
       id="path26" /><path
       d="M 383.66547,593.61825 V 577.61841 H 355.66553 V 741.2167 h 27.99994 v -68.59928 c 6.79999,8.9999 19.19996,17.59981 36.59993,17.59981 28.39994,0 50.59989,-22.99976 50.59989,-57.59939 0,-34.59964 -22.19995,-56.79941 -50.59989,-56.79941 -17.19997,0 -29.99994,8.39991 -36.59993,17.79982 z m 58.59988,38.99959 c 0,20.99978 -14.19997,32.99965 -29.39994,32.99965 -14.99997,0 -29.19994,-11.59988 -29.19994,-32.59966 0,-20.99978 14.19997,-32.59966 29.19994,-32.59966 15.19997,0 29.39994,11.19989 29.39994,32.19967 z"
       style="fill:#000000;fill-rule:nonzero;stroke-width:199.999;fill-opacity:1"
       id="path30" /><path
       d="m 487.32818,688.41725 h 27.99994 v -61.19936 c 0,-17.79981 9.79998,-27.39971 24.99995,-27.39971 14.79997,0 24.59995,9.5999 24.59995,27.39971 v 61.19936 h 27.99994 v -64.99932 c 0,-30.59968 -18.19996,-47.3995 -43.19991,-47.3995 -14.79997,0 -27.19994,5.99994 -34.39993,15.39984 V 540.4188 h -27.99994 z"
       style="fill:#000000;fill-rule:nonzero;stroke-width:199.999;fill-opacity:1"
       id="path34" /><rect
       x="615.5387"
       y="577.61841"
       width="27.999941"
       height="110.79884"
       style="fill:#000000;fill-rule:nonzero;stroke-width:199.999;fill-opacity:1"
       id="rect38" /><path
       d="m 771.67959,577.61841 h -28.19994 v 60.99936 c 0,17.79982 -9.59998,27.39972 -24.79995,27.39972 -14.79997,0 -24.59995,-9.5999 -24.59995,-27.39972 v -60.99936 h -27.99994 v 64.99932 c 0,30.39968 18.59996,47.19951 44.39991,47.19951 13.79997,0 25.99995,-5.99994 32.99993,-15.39984 v 13.99985 h 28.19994 z"
       style="fill:#000000;fill-rule:nonzero;stroke-width:199.999;fill-opacity:1"
       id="path42" /><path
       d="m 950.29001,688.41725 h 27.99994 v -64.99932 c 0,-30.59968 -18.79996,-47.3995 -45.39991,-47.3995 -16.19996,0 -30.79993,8.59991 -37.99992,21.19978 -7.59998,-13.79986 -21.79995,-21.19978 -38.99992,-21.19978 -13.79997,0 -25.59994,5.79994 -32.59993,14.99984 v -13.39986 h -27.99994 v 110.79884 h 27.99994 v -61.19936 c 0,-17.59981 9.79998,-26.79972 24.99995,-26.79972 14.79997,0 24.59995,9.19991 24.59995,26.79972 v 61.19936 h 27.99994 v -61.19936 c 0,-17.59981 9.79998,-26.79972 24.79995,-26.79972 14.79997,0 24.59995,9.19991 24.59995,26.79972 z"
       style="fill:#000000;fill-rule:nonzero;stroke-width:199.999;fill-opacity:1"
       id="path46" /></g><path
     d="m 643.8401,531.29832 c 0,-2.26837 -1.78385,-3.79313 -3.95928,-3.40955 l -20.49252,3.61336 c -2.21893,0.39125 -4.00278,2.54509 -4.00278,4.81346 v 25.55216 c 0,2.26537 1.78385,3.79313 4.00278,3.40187 l 20.49252,-3.61335 c 2.17543,-0.38359 3.95928,-2.54042 3.95928,-4.80579 z"
     style="fill:#070516;stroke-width:0.361313"
     id="path52" /></g>
</svg>
