<?xml version="1.0" encoding="UTF-8" standalone="no"?>
<svg
   width="100%"
   height="100%"
   viewBox="0 0 1400 400"
   version="1.1"
   xml:space="preserve"
   style="fill-rule:evenodd;clip-rule:evenodd;stroke-linejoin:round;stroke-miterlimit:2;"
   id="svg1454"
   xmlns="http://www.w3.org/2000/svg"
   xmlns:svg="http://www.w3.org/2000/svg">
    <g
   id="g8456"><rect
     x="0"
     y="-0.0012254165"
     width="1400.0078"
     height="399.99896"
     style="fill:none;stroke-width:1.17377"
     id="rect1391" /><path
     d="m 147.17954,245.11284 c 0,-3.65753 -2.89064,-6.1207 -6.46143,-5.49117 l -42.679446,7.52441 c -3.57079,0.62953 -6.46143,4.11195 -6.46143,7.76948 v 80.70791 c 0,3.66588 2.89064,6.12905 6.46143,5.49952 l 42.679446,-7.52441 c 3.57079,-0.62953 6.46143,-4.11195 6.46143,-7.77783 z"
     style="fill:#000000;stroke-width:0.842587;fill-opacity:1"
     id="path1393" /><path
     d="m 258.35354,64.39403 c 0,-3.657533 -2.89064,-6.120702 -6.46143,-5.49117 l -42.67945,7.524411 c -3.57079,0.629532 -6.46143,4.111944 -6.46143,7.769478 v 80.707911 c 0,3.66588 2.89064,6.12905 6.46143,5.49952 l 42.67945,-7.52441 c 3.57079,-0.62954 6.46143,-4.11195 6.46143,-7.77783 z"
     style="fill:#ff5d51;fill-opacity:1;stroke-width:0.842587"
     id="path1397" /><path
     d="m 154.11264,83.23183 c -1.64841,-3.630545 -6.07949,-6.022535 -9.90533,-5.348036 l -45.727925,8.061865 c -3.825843,0.674498 -5.58898,4.158534 -3.940571,7.789079 L 195.79689,316.75092 c 1.64841,3.63054 6.08903,6.04352 9.91487,5.36902 l 45.72792,-8.06186 c 3.82585,-0.6745 5.57945,-4.17952 3.93104,-7.81007 z"
     style="fill:#000000;stroke-width:1.43689;fill-opacity:1"
     id="path1401" /><path
     d="m 355.68825,213.93978 c 0,35.35509 22.88903,58.85703 51.50031,58.85703 17.98424,0 30.85932,-8.58331 37.6034,-18.39282 v 16.55354 h 28.81566 V 157.73949 h -28.81566 v 16.14481 c -6.74408,-9.40077 -19.21043,-17.98409 -37.39903,-17.98409 -28.81565,0 -51.70468,22.68448 -51.70468,58.03957 z m 89.10371,0.40873 c 0,21.45829 -14.30564,33.31145 -30.04184,33.31145 -15.32748,0 -29.83749,-12.26189 -29.83749,-33.72018 0,-21.45829 14.51001,-32.90271 29.83749,-32.90271 15.7362,0 30.04184,11.85315 30.04184,33.31144 z"
     style="fill:#000000;fill-rule:nonzero;stroke-width:204.366;fill-opacity:1"
     id="path1407" /><rect
     x="497.50073"
     y="119.72766"
     width="28.611284"
     height="151.22987"
     style="fill:#000000;fill-rule:nonzero;stroke-width:204.366;fill-opacity:1"
     id="rect1411" /><path
     d="m 598.8884,179.40215 c 14.71438,0 26.56762,9.40077 26.97635,24.3194 h -53.74834 c 2.24803,-15.53172 13.07945,-24.3194 26.77199,-24.3194 z m 53.74834,55.99592 h -30.85931 c -3.6786,7.5615 -10.42268,13.69244 -22.68466,13.69244 -14.30565,0 -25.75016,-9.40078 -27.18072,-26.15868 h 82.76836 c 0.61309,-3.67857 0.81746,-7.35713 0.81746,-11.0357 0,-33.72017 -23.09339,-55.99592 -55.792,-55.99592 -33.51608,0 -56.81384,22.68448 -56.81384,58.4483 0,35.55946 23.91086,58.4483 56.81384,58.4483 27.99818,0 46.79988,-16.55354 52.93087,-37.39874 z"
     style="fill:#000000;fill-rule:nonzero;stroke-width:204.366;fill-opacity:1"
     id="path1415" /><path
     d="m 700.84649,174.08867 v -16.34918 h -28.61128 v 167.17032 h 28.61128 v -70.09709 c 6.94846,9.19641 19.61917,17.98409 37.39904,17.98409 29.02001,0 51.70468,-23.50194 51.70468,-58.85703 0,-35.35509 -22.68467,-58.03957 -51.70468,-58.03957 -17.57551,0 -30.65495,8.58332 -37.39904,18.18846 z m 59.87933,39.85111 c 0,21.45829 -14.51001,33.72018 -30.04185,33.72018 -15.32747,0 -29.83748,-11.85316 -29.83748,-33.31145 0,-21.45829 14.51001,-33.31144 29.83748,-33.31144 15.53184,0 30.04185,11.44442 30.04185,32.90271 z"
     style="fill:#000000;fill-rule:nonzero;stroke-width:204.366;fill-opacity:1"
     id="path1419" /><path
     d="m 806.77254,270.95753 h 28.61128 v -62.5356 c 0,-18.18845 10.01395,-27.99796 25.54579,-27.99796 15.12311,0 25.13706,9.80951 25.13706,27.99796 v 62.5356 h 28.61128 v -66.41852 c 0,-31.2678 -18.59733,-48.43444 -44.14312,-48.43444 -15.12311,0 -27.79382,6.13094 -35.15101,15.73609 v -52.113 h -28.61128 z"
     style="fill:#000000;fill-rule:nonzero;stroke-width:204.366;fill-opacity:1"
     id="path1423" /><rect
     x="937.78235"
     y="157.73949"
     width="28.611284"
     height="113.21804"
     style="fill:#000000;fill-rule:nonzero;stroke-width:204.366;fill-opacity:1"
     id="rect1427" /><path
     d="m 1097.3324,157.73949 h -28.8156 v 62.33123 c 0,18.18846 -9.8096,27.99796 -25.3415,27.99796 -15.1231,0 -25.137,-9.8095 -25.137,-27.99796 v -62.33123 h -28.61132 v 66.41853 c 0,31.06343 19.00612,48.23006 45.36932,48.23006 14.1013,0 26.5676,-6.13094 33.7205,-15.73608 v 14.30553 h 28.8156 z"
     style="fill:#000000;fill-rule:nonzero;stroke-width:204.366;fill-opacity:1"
     id="path1431" /><path
     d="m 1279.8426,270.95753 h 28.6113 v -66.41852 c 0,-31.2678 -19.2105,-48.43444 -46.3912,-48.43444 -16.5537,0 -31.4724,8.78769 -38.8296,21.66266 -7.7659,-14.10116 -22.2759,-21.66266 -39.8514,-21.66266 -14.1013,0 -26.1589,5.92658 -33.3117,15.32736 v -13.69244 h -28.6113 v 113.21804 h 28.6113 v -62.5356 c 0,-17.98409 10.0139,-27.38486 25.5458,-27.38486 15.1231,0 25.137,9.40077 25.137,27.38486 v 62.5356 h 28.6113 v -62.5356 c 0,-17.98409 10.0139,-27.38486 25.3414,-27.38486 15.1231,0 25.1371,9.40077 25.1371,27.38486 z"
     style="fill:#000000;fill-rule:nonzero;stroke-width:204.366;fill-opacity:1"
     id="path1435" /><path
     d="m 966.70183,110.40804 c 0,-2.3179 -1.8228,-3.87595 -4.04572,-3.484 l -20.93995,3.69226 c -2.26739,0.39979 -4.09018,2.60066 -4.09018,4.91856 v 26.11007 c 0,2.31483 1.82279,3.87595 4.09018,3.47615 l 20.93995,-3.69225 c 2.22292,-0.39196 4.04572,-2.59589 4.04572,-4.91072 z"
     style="fill:#000000;stroke-width:0.369202;fill-opacity:1"
     id="path1441" /></g>
</svg>
