<?xml version="1.0" standalone="no"?>
<!DOCTYPE svg PUBLIC "-//W3C//DTD SVG 20010904//EN"
 "http://www.w3.org/TR/2001/REC-SVG-20010904/DTD/svg10.dtd">
<svg version="1.0" xmlns="http://www.w3.org/2000/svg"
 width="824.000000pt" height="824.000000pt" viewBox="0 0 824.000000 824.000000"
 preserveAspectRatio="xMidYMid meet">
<metadata>
Created by potrace 1.14, written by Peter Selinger 2001-2017
</metadata>
<g transform="translate(0.000000,824.000000) scale(0.100000,-0.100000)"
fill="#000000" stroke="none">
<path d="M3550 6640 c-106 -160 -198 -298 -204 -309 -14 -23 -69 -104 -76
-111 -3 -3 -11 -17 -19 -32 -8 -16 -18 -28 -23 -28 -4 0 -8 -5 -8 -10 0 -12
-41 -73 -52 -78 -5 -2 -8 -8 -8 -13 0 -7 -227 -356 -257 -394 -4 -6 -136 -204
-293 -440 -157 -237 -288 -431 -292 -433 -5 -2 -8 -8 -8 -13 0 -9 -38 -68 -51
-79 -3 -3 -8 -10 -10 -15 -7 -19 -264 -400 -271 -403 -5 -2 -8 -8 -8 -13 0 -6
-676 -1028 -741 -1119 -10 -15 -63 -95 -84 -129 -39 -61 -71 -106 -77 -109 -5
-2 -8 -10 -8 -18 0 -8 -4 -14 -10 -14 -5 0 -10 -4 -10 -9 0 -7 -84 -136 -250
-381 -123 -183 -318 -481 -323 -494 -4 -9 -10 -16 -15 -16 -5 0 -15 -13 -22
-30 -7 -16 -16 -30 -21 -30 -5 0 -9 -6 -9 -14 0 -8 -6 -21 -13 -28 -7 -7 -52
-74 -101 -148 -49 -74 -93 -138 -98 -141 -6 -3 -8 -8 -7 -10 3 -4 -30 -59 -41
-69 -3 -3 -21 -30 -40 -60 -19 -30 -37 -57 -40 -60 -3 -3 -18 -24 -33 -47
l-27 -43 592 0 593 0 85 131 c47 71 90 137 95 146 18 30 206 317 236 361 16
23 29 47 29 52 0 6 5 10 11 10 5 0 7 5 4 10 -3 5 -1 10 5 10 6 0 14 8 17 18 4
9 28 49 54 87 25 39 76 116 113 173 36 56 96 148 133 205 36 56 97 149 135
207 37 58 73 112 78 120 52 75 120 184 120 191 0 5 3 9 8 9 4 0 18 20 32 45
14 25 28 45 32 45 5 0 8 5 8 10 0 9 60 106 83 135 4 6 27 39 50 75 22 36 85
132 139 214 54 81 98 149 98 150 0 4 149 231 159 243 6 7 11 15 11 18 0 8 44
69 53 73 4 2 7 8 7 12 0 5 35 62 78 127 42 65 79 123 82 128 4 9 64 100 232
353 26 41 48 75 48 76 0 4 168 260 180 273 5 7 10 14 10 17 0 2 29 48 65 101
36 54 65 99 65 101 0 2 18 29 39 61 21 32 92 139 156 238 64 99 135 208 158
243 38 57 57 75 57 53 0 -9 175 -287 231 -368 16 -23 29 -46 29 -51 0 -6 3
-12 8 -14 4 -1 36 -48 70 -103 86 -135 226 -354 272 -425 5 -8 44 -69 86 -135
42 -66 109 -169 148 -230 39 -60 78 -122 85 -137 8 -16 18 -28 23 -28 4 0 8
-4 8 -10 0 -8 157 -256 211 -332 10 -15 19 -31 19 -36 0 -5 6 -15 13 -21 8 -6
24 -31 37 -56 13 -25 27 -45 32 -45 4 0 8 -4 8 -9 0 -5 21 -43 48 -83 26 -41
52 -81 57 -89 6 -9 19 -29 29 -45 11 -16 38 -58 61 -94 23 -36 74 -117 115
-180 41 -63 95 -149 122 -190 26 -41 52 -80 58 -87 5 -7 10 -15 10 -17 0 -3
36 -60 80 -127 44 -67 80 -123 80 -125 0 -3 27 -45 60 -95 33 -50 60 -93 60
-95 0 -3 5 -10 11 -17 6 -7 56 -84 112 -172 55 -88 104 -161 109 -163 4 -2 8
-9 8 -16 0 -7 13 -30 30 -52 16 -21 30 -43 30 -47 0 -4 5 -13 11 -20 10 -11
66 -98 234 -362 42 -66 122 -192 179 -280 l102 -160 603 -3 c484 -2 602 0 594
10 -10 13 -321 484 -722 1093 -14 22 -30 45 -36 51 -5 6 -19 27 -30 47 -11 20
-23 37 -27 37 -5 0 -8 4 -8 9 0 6 -27 49 -59 98 -213 318 -361 545 -361 553 0
4 -4 10 -8 12 -7 2 -63 83 -97 140 -5 9 -37 56 -69 105 -32 48 -71 106 -85
128 -14 22 -30 45 -36 51 -5 6 -19 27 -30 47 -11 20 -23 37 -27 37 -5 0 -8 5
-8 12 0 6 -11 26 -25 44 -14 18 -25 37 -25 42 0 6 -4 12 -8 14 -10 4 -302 446
-302 458 0 4 -3 10 -8 12 -7 3 -125 174 -133 194 -6 13 -83 128 -90 134 -3 3
-8 10 -10 15 -2 6 -120 184 -261 398 -142 213 -263 397 -269 409 -6 12 -20 31
-30 42 -11 11 -19 25 -19 32 0 7 -3 14 -8 16 -4 2 -31 39 -59 83 -29 44 -58
87 -63 95 -6 8 -41 61 -78 117 -37 56 -72 110 -79 120 -16 23 -375 567 -428
648 -22 33 -43 62 -47 63 -5 2 -8 8 -8 14 0 6 -16 33 -35 59 -19 27 -35 54
-35 59 0 6 -4 10 -10 10 -5 0 -10 7 -10 15 0 8 -4 15 -10 15 -5 0 -10 7 -10
15 0 8 -3 15 -7 15 -5 0 -16 14 -25 30 l-17 30 -389 0 -388 0 -194 -290z"/>
</g>
</svg>
