<?xml version="1.0" encoding="UTF-8" standalone="no"?>
<svg
   width="100%"
   height="100%"
   viewBox="0 0 1024 768"
   version="1.1"
   xml:space="preserve"
   style="fill-rule:evenodd;clip-rule:evenodd;stroke-linejoin:round;stroke-miterlimit:2;"
   id="svg8679"
   xmlns="http://www.w3.org/2000/svg"
   xmlns:svg="http://www.w3.org/2000/svg">
    <g
   id="g8875"><rect
     x="0"
     y="-0.0017441406"
     width="1024.0035"
     height="768.00037"
     style="fill:none;stroke-width:1.39098"
     id="rect8622" /><path
     d="m 471.20426,300.47408 c 0,-5.37333 -4.24667,-8.99199 -9.49256,-8.06714 l -62.70089,11.05417 c -5.24589,0.92485 -9.49257,6.0409 -9.49257,11.41422 V 433.4442 c 0,5.38559 4.24668,9.00426 9.49257,8.07941 l 62.70089,-11.05418 c 5.24589,-0.92485 9.49256,-6.04089 9.49256,-11.42649 z"
     style="fill:#ffffff;stroke-width:1.23785"
     id="path8624" /><path
     d="m 634.56726,34.977092 c 0,-5.373323 -4.24667,-8.991992 -9.49256,-8.067141 l -62.70089,11.054174 c -5.24589,0.924851 -9.49257,6.040898 -9.49257,11.414221 V 167.94721 c 0,5.38559 4.24668,9.00426 9.49257,8.07941 l 62.70089,-11.05417 c 5.24589,-0.92485 9.49256,-6.0409 9.49256,-11.42649 z"
     style="fill:#ff5d51;stroke-width:1.23785;fill-opacity:1"
     id="path8628" /><path
     d="m 481.3652,62.659772 c -2.4217,-5.333694 -8.93144,-8.847806 -14.55202,-7.856888 l -67.17929,11.843824 c -5.62058,0.990917 -8.21082,6.109372 -5.78913,11.443066 L 542.6039,405.72654 c 2.42169,5.33369 8.94544,8.87864 14.56601,7.88772 l 67.1793,-11.84383 c 5.62057,-0.99091 8.19682,-6.1402 5.77512,-11.47389 z"
     style="fill:#ffffff;stroke-width:2.11095"
     id="path8632" /><path
     d="m 45.83565,632.66484 c 0,34.59983 22.399946,57.59971 50.399879,57.59971 17.599961,0 30.199931,-8.39996 36.799911,-17.99991 v 16.19992 h 28.19993 V 577.66512 h -28.19993 v 15.79992 c -6.59998,-9.19995 -18.79995,-17.59991 -36.599911,-17.59991 -28.199933,0 -50.599879,22.19989 -50.599879,56.79971 z m 87.19979,0.4 c 0,20.99989 -13.99997,32.59984 -29.39993,32.59984 -14.999963,0 -29.199928,-11.99994 -29.199928,-32.99984 0,-20.99989 14.199965,-32.19984 29.199928,-32.19984 15.39996,0 29.39993,11.59995 29.39993,32.59984 z"
     style="fill:#ffffff;fill-rule:nonzero;stroke-width:199.999"
     id="path8636" /><rect
     x="184.61795"
     y="540.46533"
     width="27.999933"
     height="147.99925"
     style="fill:#ffffff;fill-rule:nonzero;stroke-width:199.999"
     id="rect8640" /><path
     d="m 283.83922,598.86501 c 14.39997,0 25.99994,9.19996 26.39994,23.79988 h -52.59987 c 2.19999,-15.19992 12.79996,-23.79988 26.19993,-23.79988 z m 52.59988,54.79973 h -30.19993 c -3.59999,7.39996 -10.19998,13.39993 -22.19995,13.39993 -13.99996,0 -25.19994,-9.19996 -26.59993,-25.59987 h 80.9998 c 0.6,-3.59998 0.8,-7.19997 0.8,-10.79995 0,-32.99983 -22.59995,-54.79972 -54.59987,-54.79972 -32.79992,0 -55.59987,22.19989 -55.59987,57.19971 0,34.79982 23.39995,57.19971 55.59987,57.19971 27.39993,0 45.79989,-16.19992 51.79988,-36.59981 z"
     style="fill:#ffffff;fill-rule:nonzero;stroke-width:199.999"
     id="path8644" /><path
     d="m 383.61872,593.66504 v -15.99992 h -27.99993 v 163.59917 h 27.99993 v -68.59965 c 6.79998,8.99995 19.19995,17.59991 36.59991,17.59991 28.39993,0 50.59988,-22.99988 50.59988,-57.59971 0,-34.59982 -22.19995,-56.79971 -50.59988,-56.79971 -17.19996,0 -29.99993,8.39996 -36.59991,17.79991 z m 58.59986,38.9998 c 0,20.9999 -14.19997,32.99984 -29.39993,32.99984 -14.99996,0 -29.19993,-11.59995 -29.19993,-32.59984 0,-20.99989 14.19997,-32.59984 29.19993,-32.59984 15.19996,0 29.39993,11.19995 29.39993,32.19984 z"
     style="fill:#ffffff;fill-rule:nonzero;stroke-width:199.999"
     id="path8648" /><path
     d="m 487.2814,688.46456 h 27.99993 v -61.19969 c 0,-17.79991 9.79998,-27.39986 24.99994,-27.39986 14.79996,0 24.59994,9.59995 24.59994,27.39986 v 61.19969 h 27.99993 v -64.99967 c 0,-30.59985 -18.19995,-47.39976 -43.19989,-47.39976 -14.79997,0 -27.19994,5.99997 -34.39992,15.39992 V 540.46531 H 487.2814 Z"
     style="fill:#ffffff;fill-rule:nonzero;stroke-width:199.999"
     id="path8652" /><rect
     x="615.49188"
     y="577.6651"
     width="27.999933"
     height="110.79945"
     style="fill:#ffffff;fill-rule:nonzero;stroke-width:199.999"
     id="rect8656" /><path
     d="m 771.63273,577.66512 h -28.19994 v 60.99969 c 0,17.79991 -9.59997,27.39986 -24.79994,27.39986 -14.79996,0 -24.59994,-9.59995 -24.59994,-27.39986 v -60.99969 h -27.99993 v 64.99967 c 0,30.39985 18.59995,47.19976 44.39989,47.19976 13.79997,0 25.99994,-5.99997 32.99992,-15.39992 v 13.99993 h 28.19994 z"
     style="fill:#ffffff;fill-rule:nonzero;stroke-width:199.999"
     id="path8660" /><path
     d="m 950.24308,688.46456 h 27.99994 v -64.99967 c 0,-30.59985 -18.79996,-47.39976 -45.39989,-47.39976 -16.19996,0 -30.79993,8.59995 -37.99991,21.19989 -7.59998,-13.79993 -21.79995,-21.19989 -38.99991,-21.19989 -13.79997,0 -25.59994,5.79997 -32.59992,14.99992 v -13.39993 h -27.99993 v 110.79944 h 27.99993 v -61.19969 c 0,-17.59991 9.79998,-26.79987 24.99994,-26.79987 14.79996,0 24.59994,9.19996 24.59994,26.79987 v 61.19969 h 27.99993 v -61.19969 c 0,-17.59991 9.79998,-26.79987 24.79994,-26.79987 14.79997,0 24.59994,9.19996 24.59994,26.79987 z"
     style="fill:#ffffff;fill-rule:nonzero;stroke-width:199.999"
     id="path8664" /><path
     d="m 643.79358,531.34478 c 0,-2.26838 -1.78385,-3.79315 -3.95928,-3.40956 l -20.49251,3.61337 c -2.21894,0.39126 -4.00279,2.54511 -4.00279,4.81349 v 25.5523 c 0,2.26538 1.78385,3.79315 4.00279,3.40189 l 20.49251,-3.61337 c 2.17543,-0.38359 3.95928,-2.54044 3.95928,-4.80582 z"
     style="fill:#ffffff;stroke-width:0.361314"
     id="path8670" /></g>
</svg>
