<svg width="942.714" height="70.403" viewBox="0 0 942.714 70.403" xmlns="http://www.w3.org/2000/svg"><g id="svgGroup" stroke-linecap="round" fill-rule="evenodd" font-size="9pt" stroke="#000" stroke-width="0" fill="#000000" style="stroke:#000;stroke-width:0;fill:#000000"><path d="M 942.7 53.401 L 942.7 44.701 C 942.7 35.867 938.033 29.481 926.155 28.019 A 45.571 45.571 0 0 0 920.6 27.701 L 879.2 27.701 C 873.325 27.701 870.518 25.496 870.404 21.461 A 9.174 9.174 0 0 1 870.4 21.201 L 870.4 16.901 A 6.529 6.529 0 0 1 871.146 13.682 C 872.091 11.983 873.948 10.914 876.787 10.546 A 18.786 18.786 0 0 1 879.2 10.401 L 938.8 10.401 L 938.8 0.001 L 879.2 0.001 A 42.046 42.046 0 0 0 871.66 0.621 C 861.244 2.526 857.1 8.677 857.1 17.001 L 857.1 21.101 C 857.1 29.936 861.767 36.322 873.645 37.784 A 45.571 45.571 0 0 0 879.2 38.101 L 920.6 38.101 C 926.475 38.101 929.282 40.307 929.396 44.342 A 9.174 9.174 0 0 1 929.4 44.601 L 929.4 53.501 A 6.529 6.529 0 0 1 928.654 56.72 C 927.709 58.419 925.852 59.488 923.013 59.857 A 18.786 18.786 0 0 1 920.6 60.001 L 859.4 60.001 L 859.4 70.401 L 920.6 70.401 A 42.046 42.046 0 0 0 928.14 69.782 C 938.556 67.877 942.7 61.726 942.7 53.401 Z M 362.6 70.401 L 362.6 0.001 L 349.3 0.001 L 349.3 28.001 L 291.7 28.001 L 291.7 0.001 L 278.4 0.001 L 278.4 70.401 L 291.7 70.401 L 291.7 38.401 L 349.3 38.401 L 349.3 70.401 L 362.6 70.401 Z M 103 70.401 L 56.5 0.001 L 46.8 0.001 L 0 70.401 L 14.8 70.401 L 51.7 13.701 L 88 70.401 L 103 70.401 Z M 472.1 70.401 L 425.6 0.001 L 415.9 0.001 L 369.1 70.401 L 383.9 70.401 L 420.8 13.701 L 457.1 70.401 L 472.1 70.401 Z M 673.8 70.401 L 627.3 0.001 L 617.6 0.001 L 570.8 70.401 L 585.6 70.401 L 622.5 13.701 L 658.8 70.401 L 673.8 70.401 Z M 569.1 50.301 L 569.1 20.801 C 569.1 6.901 563 0.001 543.1 0.001 L 478.6 0.001 L 478.6 70.401 L 543.1 70.401 C 561.684 70.401 568.233 64.384 569.018 52.838 A 37.423 37.423 0 0 0 569.1 50.301 Z M 269.1 27.401 L 269.1 17.001 C 269.1 8.167 264.433 1.781 252.555 0.319 A 45.571 45.571 0 0 0 247 0.001 L 189.3 0.001 L 189.3 70.401 L 202.6 70.401 L 202.6 44.401 L 247 44.401 A 42.046 42.046 0 0 0 254.54 43.782 C 264.956 41.877 269.1 35.726 269.1 27.401 Z M 760.1 27.401 L 760.1 17.001 C 760.1 8.167 755.433 1.781 743.555 0.319 A 45.571 45.571 0 0 0 738 0.001 L 680.3 0.001 L 680.3 70.401 L 693.6 70.401 L 693.6 44.401 L 738 44.401 A 42.046 42.046 0 0 0 745.54 43.782 C 755.956 41.877 760.1 35.726 760.1 27.401 Z M 849.2 27.401 L 849.2 17.001 C 849.2 8.167 844.533 1.781 832.655 0.319 A 45.571 45.571 0 0 0 827.1 0.001 L 769.4 0.001 L 769.4 70.401 L 782.7 70.401 L 782.7 44.401 L 827.1 44.401 A 42.046 42.046 0 0 0 834.64 43.782 C 845.056 41.877 849.2 35.726 849.2 27.401 Z M 180 70.401 L 180 60.001 L 122.9 60.001 L 122.9 0.001 L 109.5 0.001 L 109.5 70.401 L 180 70.401 Z M 543.1 60.001 L 491.9 60.001 L 491.9 10.401 L 543.1 10.401 A 40.703 40.703 0 0 1 547.237 10.583 C 553.807 11.262 555.8 13.967 555.8 20.801 L 555.8 50.201 C 555.8 57.538 553.121 59.899 543.738 59.998 A 60.156 60.156 0 0 1 543.1 60.001 Z M 247 34.001 L 202.6 34.001 L 202.6 10.401 L 247 10.401 C 252.875 10.401 255.682 12.607 255.796 16.642 A 9.174 9.174 0 0 1 255.8 16.901 L 255.8 27.501 A 6.529 6.529 0 0 1 255.054 30.72 C 254.109 32.419 252.252 33.488 249.413 33.857 A 18.786 18.786 0 0 1 247 34.001 Z M 738 34.001 L 693.6 34.001 L 693.6 10.401 L 738 10.401 C 743.875 10.401 746.682 12.607 746.796 16.642 A 9.174 9.174 0 0 1 746.8 16.901 L 746.8 27.501 A 6.529 6.529 0 0 1 746.054 30.72 C 745.109 32.419 743.252 33.488 740.413 33.857 A 18.786 18.786 0 0 1 738 34.001 Z M 827.1 34.001 L 782.7 34.001 L 782.7 10.401 L 827.1 10.401 C 832.975 10.401 835.782 12.607 835.896 16.642 A 9.174 9.174 0 0 1 835.9 16.901 L 835.9 27.501 A 6.529 6.529 0 0 1 835.154 30.72 C 834.209 32.419 832.352 33.488 829.513 33.857 A 18.786 18.786 0 0 1 827.1 34.001 Z" vector-effect="non-scaling-stroke"/></g></svg>