<svg width="755.107" height="70.402" viewBox="0 0 755.107 70.402" xmlns="http://www.w3.org/2000/svg"><g id="svgGroup" stroke-linecap="round" fill-rule="evenodd" font-size="9pt" stroke="#000" stroke-width="0.25mm" fill="#000" style="stroke:#000;stroke-width:0.25mm;fill:#000"><path d="M 651.6 70.401 L 651.6 0.001 L 640 0.001 L 640 52.301 L 569.9 0.001 L 558.4 0.001 L 558.4 70.401 L 570 70.401 L 570 15.601 L 645.1 70.401 L 651.6 70.401 Z M 362.6 70.401 L 362.6 0.001 L 349.3 0.001 L 349.3 28.001 L 291.7 28.001 L 291.7 0.001 L 278.4 0.001 L 278.4 70.401 L 291.7 70.401 L 291.7 38.401 L 349.3 38.401 L 349.3 70.401 L 362.6 70.401 Z M 103 70.401 L 56.5 0.001 L 46.8 0.001 L 0 70.401 L 14.8 70.401 L 51.7 13.701 L 88 70.401 L 103 70.401 Z M 551.9 70.401 L 505.4 0.001 L 495.7 0.001 L 448.9 70.401 L 463.7 70.401 L 500.6 13.701 L 536.9 70.401 L 551.9 70.401 Z M 755.1 50.301 L 755.1 20.801 C 755.1 6.901 749 0.001 729.1 0.001 L 664.6 0.001 L 664.6 70.401 L 729.1 70.401 C 747.684 70.401 754.233 64.384 755.018 52.837 A 37.423 37.423 0 0 0 755.1 50.301 Z M 269.1 27.401 L 269.1 17.001 C 269.1 8.166 264.433 1.78 252.555 0.319 A 45.571 45.571 0 0 0 247 0.001 L 189.3 0.001 L 189.3 70.401 L 202.6 70.401 L 202.6 44.401 L 247 44.401 A 42.046 42.046 0 0 0 254.54 43.781 C 264.956 41.876 269.1 35.726 269.1 27.401 Z M 180 70.401 L 180 60.001 L 122.9 60.001 L 122.9 0.001 L 109.5 0.001 L 109.5 70.401 L 180 70.401 Z M 446.1 70.401 L 446.1 60.001 L 389 60.001 L 389 0.001 L 375.6 0.001 L 375.6 70.401 L 446.1 70.401 Z M 729.1 60.001 L 677.9 60.001 L 677.9 10.401 L 729.1 10.401 A 40.703 40.703 0 0 1 733.237 10.583 C 739.807 11.261 741.8 13.967 741.8 20.801 L 741.8 50.201 C 741.8 57.537 739.121 59.898 729.738 59.998 A 60.156 60.156 0 0 1 729.1 60.001 Z M 247 34.001 L 202.6 34.001 L 202.6 10.401 L 247 10.401 C 252.875 10.401 255.682 12.606 255.796 16.641 A 9.174 9.174 0 0 1 255.8 16.901 L 255.8 27.501 A 6.529 6.529 0 0 1 255.054 30.72 C 254.109 32.419 252.252 33.488 249.413 33.857 A 18.786 18.786 0 0 1 247 34.001 Z" vector-effect="non-scaling-stroke"/></g></svg>